<svg width="78" height="65" viewBox="0 0 78 65" fill="none" xmlns="http://www.w3.org/2000/svg">
<rect width="78" height="65" rx="8" fill="#3A1044"/>
<path fill-rule="evenodd" clip-rule="evenodd" d="M37.7411 39.362L24.6491 45.7431C23.5577 46.2752 22.35 46.2327 21.303 45.6255C20.256 45.0184 19.6646 44.0175 19.6646 42.8526V22.1353C19.6646 20.3459 21.2018 18.8863 23.0865 18.8863H26.7813V27.6969V30.0556V33.7517C26.7813 34.4876 27.1548 35.1201 27.8166 35.5038C28.4782 35.8876 29.2414 35.9146 29.9311 35.5781C32.4648 34.3433 35.003 33.1062 37.528 31.8756C37.98 31.6924 38.4776 31.5911 39 31.5911C39.5224 31.5911 40.02 31.6924 40.4718 31.8756C42.9968 33.1062 45.5352 34.3433 48.0687 35.5781C48.7583 35.9146 49.5216 35.8876 50.1832 35.5038C50.845 35.1201 51.2187 34.4876 51.2187 33.7517V27.6969C51.2187 26.5662 50.2473 25.6436 49.0562 25.6436H33.8979V18.8863H54.9135C56.798 18.8863 58.3352 20.3459 58.3352 22.1353V42.8526C58.3352 44.0175 57.7441 45.0184 56.6971 45.6255C55.6498 46.2327 54.4421 46.2752 53.3506 45.7431L40.2587 39.362C39.8653 39.2291 39.4414 39.1568 39 39.1568C38.5584 39.1568 38.1347 39.2291 37.7411 39.362Z" fill="#BB22DF"/>
</svg>
